<svg width="19" height="19" viewBox="0 0 19 19" fill="none" xmlns="http://www.w3.org/2000/svg">
<path d="M15.06 3.27157C18.2793 6.49097 18.2793 11.7112 15.06 14.9305C12.4408 17.5497 8.50026 18.0349 5.38834 16.3945C5.3176 16.4096 5.21629 16.4357 5.08174 16.4815C4.73806 16.5985 4.31851 16.7803 3.86157 16.9752C3.43246 17.1583 2.9512 17.3625 2.56198 17.4752C2.3786 17.5282 2.12823 17.588 1.87973 17.5774C1.75151 17.5719 1.5553 17.5451 1.35838 17.4303C1.13431 17.2996 0.967438 17.0874 0.897796 16.8274C0.824371 16.5533 0.865479 16.2816 0.895724 16.1252C0.931679 15.9392 0.990431 15.7413 1.05317 15.552C1.17794 15.1757 1.35586 14.7298 1.51099 14.3305C1.67389 13.9112 1.81416 13.5355 1.89631 13.2367C1.92873 13.1187 1.9448 13.0323 1.95293 12.9743C0.2929 9.85756 0.773163 5.89944 3.40098 3.27157C6.62038 0.0521786 11.8406 0.0521786 15.06 3.27157Z" stroke="black" stroke-width="1.71429"/>
</svg>
