<svg width="5" height="11" viewBox="0 0 5 11" fill="none" xmlns="http://www.w3.org/2000/svg">
<path opacity="0.3" d="M0 2.5C0 3.65228 0.780355 4.61967 1.84082 4.90918L1.84082 9.78418C1.84085 10.1488 2.13635 10.4443 2.50098 10.4443C2.86561 10.4443 3.16111 10.1488 3.16113 9.78418V9.64355L3.95703 9.64355C4.3021 9.64355 4.58185 9.36358 4.58203 9.01855C4.58203 8.67337 4.30222 8.39355 3.95703 8.39355L3.16113 8.39355V7.97656L3.54102 7.97656C3.88597 7.97632 4.16599 7.69657 4.16602 7.35156C4.16602 7.00653 3.88599 6.72681 3.54102 6.72656L3.16113 6.72656V4.90918C4.22067 4.61906 5 3.65162 5 2.5C4.99986 1.11939 3.88063 -1.69628e-07 2.5 -1.09278e-07C1.11937 8.84127e-06 0.000143189 1.11939 0 2.5ZM1.5 2.5C1.50014 1.9478 1.94782 1.50001 2.5 1.5C3.05219 1.5 3.49986 1.9478 3.5 2.5C3.5 3.05232 3.05228 3.5 2.5 3.5C1.94773 3.49999 1.5 3.05232 1.5 2.5Z" fill="#E05B00"/>
</svg>
