<svg width="10" height="21" viewBox="0 0 10 21" fill="none" xmlns="http://www.w3.org/2000/svg">
<path opacity="0.3" d="M0.00683617 5.25684C0.117721 7.44777 1.63891 9.26599 3.68066 9.82324L3.68066 19.5674C3.68066 20.2967 4.27169 20.8877 5.00098 20.8877C5.73021 20.8876 6.32129 20.2966 6.32129 19.5674L6.32129 19.2852L7.91504 19.2852C8.60539 19.2852 9.16504 18.7255 9.16504 18.0352C9.16494 17.3449 8.60533 16.7852 7.91504 16.7852L6.32129 16.7852L6.32129 15.9521L7.08203 15.9521C7.77217 15.9519 8.33201 15.3923 8.33203 14.7021C8.33203 14.0119 7.77218 13.4524 7.08203 13.4521L6.32129 13.4521L6.32129 9.82129C8.44127 9.24171 9.99998 7.30381 10 5L9.99316 4.74219C9.86333 2.18567 7.81347 0.136229 5.25684 0.00683571L5 -2.18557e-07C2.2386 -9.78526e-08 9.78636e-08 2.2386 2.18557e-07 5L0.00683617 5.25684ZM3 5C3 3.89545 3.89545 3 5 3C6.10453 3.00002 7 3.89547 7 5C6.99998 6.10451 6.10451 6.99998 5 7C3.89547 7 3.00002 6.10453 3 5Z" fill="#555555"/>
</svg>
