<svg width="134" height="39" viewBox="0 0 134 39" fill="none" xmlns="http://www.w3.org/2000/svg">
<path d="M7.70751 19.6563V36.6934C7.30472 36.6934 6.67331 36.6389 5.81329 36.541C4.95327 36.443 4.32187 36.3886 3.91907 36.3886C3.47273 36.3886 2.81956 36.443 1.95954 36.541C1.1104 36.6389 0.457225 36.6934 0 36.6934V1.37817H19.5954C19.53 1.75919 19.4647 2.20553 19.3994 2.71719C19.3341 3.22885 19.3014 3.53366 19.3014 3.63164C19.3994 4.35014 19.4974 5.06863 19.6063 5.78713C16.6016 5.51497 14.3482 5.34079 12.835 5.23193C11.3327 5.14484 9.6235 5.09041 7.70751 5.09041V16.1618H13.1507C14.936 16.1618 17.0262 15.9985 19.4103 15.661C19.345 16.0312 19.2797 16.4666 19.2143 16.9891C19.149 17.5117 19.1164 17.8165 19.1164 17.9145C19.2143 18.633 19.3123 19.3515 19.4212 20.07C18.2999 19.972 17.1133 19.874 15.8614 19.7869C14.6094 19.6998 13.7059 19.6454 13.1507 19.6454H7.70751V19.6563Z" fill="black"/>
<path d="M41.6293 26.1115H29.6325C28.9467 28.0711 28.4677 29.4536 28.2064 30.2701C27.2049 33.1114 26.4864 35.2778 26.051 36.791C25.7353 36.7584 25.376 36.7148 24.9841 36.6604C24.5922 36.6059 24.1567 36.5842 23.6669 36.5842C23.2641 36.5842 22.8177 36.6059 22.3387 36.6604C21.8488 36.7148 21.4787 36.7475 21.2065 36.791L35.8922 1.18188C36.197 1.2472 36.5018 1.27986 36.8284 1.27986C37.155 1.27986 37.4925 1.27986 37.8408 1.27986H38.5376C38.7008 1.27986 38.8968 1.27986 39.1145 1.27986C39.4302 1.21454 39.648 1.18188 39.7786 1.18188L54.0614 36.889C53.3756 36.889 52.8422 36.8672 52.4612 36.8346C50.654 36.6713 49.7178 36.5842 49.6525 36.5842C48.9666 36.5842 48.4332 36.6059 48.0522 36.6386C46.2451 36.8019 45.3088 36.889 45.2218 36.889C44.0243 32.7195 42.8376 29.1271 41.6293 26.1115ZM31.0587 22.9327H40.41L35.8922 11.034L31.0587 22.9327Z" fill="black"/>
<path d="M83.1404 18.582V19.5254C83.1404 21.0384 82.9354 22.3965 82.5252 23.5996C82.1151 24.8027 81.5363 25.8281 80.7889 26.6758C80.0415 27.5143 79.1483 28.1569 78.1092 28.6035C77.0792 29.0501 75.9354 29.2734 74.6776 29.2734C73.4289 29.2734 72.285 29.0501 71.2459 28.6035C70.216 28.1569 69.3227 27.5143 68.5662 26.6758C67.8097 25.8281 67.2218 24.8027 66.8026 23.5996C66.3924 22.3965 66.1873 21.0384 66.1873 19.5254V18.582C66.1873 17.0599 66.3924 15.7018 66.8026 14.5078C67.2127 13.3047 67.7915 12.2793 68.5389 11.4316C69.2954 10.584 70.1886 9.93685 71.2186 9.49023C72.2576 9.04362 73.4015 8.82031 74.6502 8.82031C75.908 8.82031 77.0519 9.04362 78.0818 9.49023C79.1209 9.93685 80.0141 10.584 80.7615 11.4316C81.518 12.2793 82.1014 13.3047 82.5115 14.5078C82.9308 15.7018 83.1404 17.0599 83.1404 18.582ZM78.9979 19.5254V18.5547C78.9979 17.4974 78.9022 16.5677 78.7108 15.7656C78.5193 14.9635 78.2368 14.2891 77.8631 13.7422C77.4894 13.1953 77.0337 12.7852 76.4959 12.5117C75.9582 12.2292 75.3429 12.0879 74.6502 12.0879C73.9575 12.0879 73.3423 12.2292 72.8045 12.5117C72.2759 12.7852 71.8247 13.1953 71.451 13.7422C71.0864 14.2891 70.8084 14.9635 70.617 15.7656C70.4256 16.5677 70.3299 17.4974 70.3299 18.5547V19.5254C70.3299 20.5736 70.4256 21.5033 70.617 22.3145C70.8084 23.1165 71.091 23.7956 71.4647 24.3516C71.8384 24.8984 72.2941 25.3132 72.8318 25.5957C73.3696 25.8783 73.9848 26.0195 74.6776 26.0195C75.3703 26.0195 75.9855 25.8783 76.5233 25.5957C77.061 25.3132 77.5122 24.8984 77.8768 24.3516C78.2414 23.7956 78.5193 23.1165 78.7108 22.3145C78.9022 21.5033 78.9979 20.5736 78.9979 19.5254ZM95.2455 21.9043H90.1733V18.7051H95.2455C96.0294 18.7051 96.6674 18.5775 97.1596 18.3223C97.6518 18.0579 98.0118 17.6934 98.2397 17.2285C98.4675 16.7637 98.5815 16.2396 98.5815 15.6562C98.5815 15.0638 98.4675 14.5124 98.2397 14.002C98.0118 13.4915 97.6518 13.0814 97.1596 12.7715C96.6674 12.4616 96.0294 12.3066 95.2455 12.3066H91.5951V29H87.4936V9.09375H95.2455C96.8041 9.09375 98.1394 9.3763 99.2514 9.94141C100.372 10.4974 101.229 11.2676 101.822 12.252C102.414 13.2363 102.71 14.362 102.71 15.6289C102.71 16.9141 102.414 18.026 101.822 18.9648C101.229 19.9036 100.372 20.6283 99.2514 21.1387C98.1394 21.6491 96.8041 21.9043 95.2455 21.9043ZM117.304 23.791C117.304 23.4355 117.249 23.1165 117.14 22.834C117.039 22.5423 116.848 22.278 116.565 22.041C116.283 21.7949 115.886 21.5534 115.376 21.3164C114.866 21.0794 114.205 20.8333 113.394 20.5781C112.491 20.2865 111.634 19.9583 110.823 19.5938C110.021 19.2292 109.31 18.8053 108.69 18.3223C108.08 17.8301 107.597 17.2604 107.241 16.6133C106.895 15.9661 106.722 15.2142 106.722 14.3574C106.722 13.528 106.904 12.776 107.269 12.1016C107.633 11.418 108.144 10.8346 108.8 10.3516C109.456 9.85938 110.231 9.48112 111.124 9.2168C112.026 8.95247 113.015 8.82031 114.091 8.82031C115.558 8.82031 116.839 9.08464 117.933 9.61328C119.026 10.1419 119.874 10.8665 120.476 11.7871C121.086 12.7077 121.392 13.7604 121.392 14.9453H117.317C117.317 14.362 117.194 13.8516 116.948 13.4141C116.711 12.9674 116.347 12.6165 115.855 12.3613C115.371 12.1061 114.761 11.9785 114.022 11.9785C113.312 11.9785 112.719 12.0879 112.245 12.3066C111.771 12.5163 111.416 12.8034 111.179 13.168C110.942 13.5234 110.823 13.9245 110.823 14.3711C110.823 14.7083 110.905 15.0137 111.069 15.2871C111.243 15.5605 111.498 15.8158 111.835 16.0527C112.172 16.2897 112.587 16.513 113.079 16.7227C113.571 16.9323 114.141 17.1374 114.788 17.3379C115.873 17.666 116.825 18.0352 117.646 18.4453C118.475 18.8555 119.168 19.3158 119.724 19.8262C120.28 20.3366 120.699 20.9154 120.981 21.5625C121.264 22.2096 121.405 22.9434 121.405 23.7637C121.405 24.6296 121.237 25.4043 120.899 26.0879C120.562 26.7715 120.075 27.3503 119.437 27.8242C118.799 28.2982 118.037 28.6582 117.153 28.9043C116.269 29.1504 115.28 29.2734 114.187 29.2734C113.202 29.2734 112.231 29.1458 111.274 28.8906C110.317 28.6263 109.447 28.2298 108.663 27.7012C107.888 27.1725 107.269 26.498 106.804 25.6777C106.339 24.8574 106.106 23.8867 106.106 22.7656H110.222C110.222 23.3854 110.317 23.9095 110.509 24.3379C110.7 24.7663 110.969 25.1126 111.315 25.377C111.671 25.6413 112.09 25.8327 112.573 25.9512C113.065 26.0697 113.603 26.1289 114.187 26.1289C114.897 26.1289 115.481 26.0286 115.937 25.8281C116.401 25.6276 116.743 25.3496 116.962 24.9941C117.19 24.6387 117.304 24.2376 117.304 23.791Z" fill="black"/>
</svg>
