<svg width="42" height="46" viewBox="0 0 42 46" fill="none" xmlns="http://www.w3.org/2000/svg">
<path d="M20.7207 2.21997C28.7961 2.21997 32.1731 8.88584 32.1731 13.4815C32.1731 22.5847 35.5207 24.8751 37.5175 26.2259C38.3985 26.8279 39.2207 27.3858 39.2207 28.3696C39.2207 31.8493 33.6854 33.3323 20.7207 33.3323C7.75602 33.3323 2.2207 31.864 2.2207 28.3843C2.2207 27.4005 3.04293 26.8426 3.92388 26.2406C5.9207 24.8751 9.26832 22.5993 9.26832 13.4962C9.26832 8.90053 12.6453 2.21997 20.7207 2.21997Z" stroke="black" stroke-width="4.44"/>
<path d="M15.4375 38.2533C15.4375 41.1751 17.8014 43.539 20.7232 43.539C23.645 43.539 26.0089 41.1751 26.0089 38.2533" stroke="black" stroke-width="4.44" stroke-linecap="round"/>
</svg>
