<svg width="24" height="45" viewBox="0 0 24 45" fill="none" xmlns="http://www.w3.org/2000/svg">
<path d="M14.2734 0V6.91406H10.6172V0H14.2734ZM13.8281 38.2734V44.5781H10.1719V38.2734H13.8281ZM16.4062 30.5859C16.4062 29.6953 16.2422 28.9375 15.9141 28.3125C15.6016 27.6875 15.0859 27.1328 14.3672 26.6484C13.6641 26.1641 12.7109 25.6953 11.5078 25.2422C9.47656 24.4609 7.6875 23.6328 6.14062 22.7578C4.60938 21.8672 3.41406 20.7656 2.55469 19.4531C1.69531 18.125 1.26562 16.4453 1.26562 14.4141C1.26562 12.4766 1.72656 10.7969 2.64844 9.375C3.57031 7.95312 4.84375 6.85938 6.46875 6.09375C8.10938 5.3125 10.0156 4.92188 12.1875 4.92188C13.8438 4.92188 15.3438 5.17188 16.6875 5.67188C18.0312 6.15625 19.1875 6.875 20.1562 7.82812C21.125 8.76562 21.8672 9.91406 22.3828 11.2734C22.8984 12.6328 23.1562 14.1875 23.1562 15.9375H16.4297C16.4297 15 16.3281 14.1719 16.125 13.4531C15.9219 12.7344 15.625 12.1328 15.2344 11.6484C14.8594 11.1641 14.4062 10.8047 13.875 10.5703C13.3438 10.3203 12.7578 10.1953 12.1172 10.1953C11.1641 10.1953 10.3828 10.3828 9.77344 10.7578C9.16406 11.1328 8.71875 11.6406 8.4375 12.2812C8.17188 12.9062 8.03906 13.625 8.03906 14.4375C8.03906 15.2344 8.17969 15.9297 8.46094 16.5234C8.75781 17.1172 9.26562 17.6641 9.98438 18.1641C10.7031 18.6484 11.6875 19.1484 12.9375 19.6641C14.9688 20.4453 16.75 21.2891 18.2812 22.1953C19.8125 23.1016 21.0078 24.2109 21.8672 25.5234C22.7266 26.8359 23.1562 28.5078 23.1562 30.5391C23.1562 32.5547 22.6875 34.2734 21.75 35.6953C20.8125 37.1016 19.5 38.1797 17.8125 38.9297C16.125 39.6641 14.1719 40.0312 11.9531 40.0312C10.5156 40.0312 9.08594 39.8438 7.66406 39.4688C6.24219 39.0781 4.95312 38.4531 3.79688 37.5938C2.64062 36.7344 1.71875 35.5938 1.03125 34.1719C0.34375 32.7344 0 30.9688 0 28.875H6.75C6.75 30.0156 6.89844 30.9688 7.19531 31.7344C7.49219 32.4844 7.88281 33.0859 8.36719 33.5391C8.86719 33.9766 9.42969 34.2891 10.0547 34.4766C10.6797 34.6641 11.3125 34.7578 11.9531 34.7578C12.9531 34.7578 13.7734 34.5781 14.4141 34.2188C15.0703 33.8594 15.5625 33.3672 15.8906 32.7422C16.2344 32.1016 16.4062 31.3828 16.4062 30.5859Z" fill="black"/>
</svg>
