<svg width="26" height="11" viewBox="0 0 26 11" fill="none" xmlns="http://www.w3.org/2000/svg">
<path fill-rule="evenodd" clip-rule="evenodd" d="M8.25 5.25C8.25 6.90685 6.90685 8.25 5.25 8.25C3.59315 8.25 2.25 6.90685 2.25 5.25C2.25 3.59315 3.59315 2.25 5.25 2.25C6.90685 2.25 8.25 3.59315 8.25 5.25ZM10.151 6.24515C9.68957 8.52981 7.67067 10.25 5.25 10.25C2.48858 10.25 0.25 8.01142 0.25 5.25C0.25 2.48858 2.48858 0.25 5.25 0.25C7.67067 0.25 9.68957 1.97019 10.151 4.25485C10.1835 4.25164 10.2166 4.25 10.25 4.25H24.25C24.8023 4.25 25.25 4.69772 25.25 5.25C25.25 5.80228 24.8023 6.25 24.25 6.25H23.25V9.25C23.25 9.80229 22.8023 10.25 22.25 10.25C21.6977 10.25 21.25 9.80229 21.25 9.25V6.25H19.25V8.25C19.25 8.80229 18.8023 9.25 18.25 9.25C17.6977 9.25 17.25 8.80229 17.25 8.25V6.25H10.25C10.2166 6.25 10.1835 6.24836 10.151 6.24515Z" fill="#555555"/>
<path d="M10.151 6.24515L10.1754 5.99635L9.95063 5.97425L9.90591 6.19566L10.151 6.24515ZM10.151 4.25485L9.90591 4.30434L9.95063 4.52575L10.1754 4.50365L10.151 4.25485ZM23.25 6.25V6H23V6.25H23.25ZM21.25 6.25H21.5V6H21.25V6.25ZM19.25 6.25V6H19V6.25H19.25ZM17.25 6.25H17.5V6H17.25V6.25ZM5.25 8.5C7.04493 8.5 8.5 7.04493 8.5 5.25H8C8 6.76878 6.76878 8 5.25 8V8.5ZM2 5.25C2 7.04493 3.45507 8.5 5.25 8.5V8C3.73122 8 2.5 6.76878 2.5 5.25H2ZM5.25 2C3.45507 2 2 3.45507 2 5.25H2.5C2.5 3.73122 3.73122 2.5 5.25 2.5V2ZM8.5 5.25C8.5 3.45507 7.04493 2 5.25 2V2.5C6.76878 2.5 8 3.73122 8 5.25H8.5ZM5.25 10.5C7.79199 10.5 9.91153 8.69364 10.396 6.29464L9.90591 6.19566C9.46761 8.36598 7.54935 10 5.25 10V10.5ZM0 5.25C0 8.14949 2.3505 10.5 5.25 10.5V10C2.62665 10 0.5 7.87335 0.5 5.25H0ZM5.25 0C2.3505 0 0 2.3505 0 5.25H0.5C0.5 2.62665 2.62665 0.5 5.25 0.5V0ZM10.396 4.20536C9.91153 1.80636 7.79199 0 5.25 0V0.5C7.54935 0.5 9.46761 2.13402 9.90591 4.30434L10.396 4.20536ZM10.25 4C10.2084 4 10.1672 4.00205 10.1265 4.00605L10.1754 4.50365C10.1999 4.50124 10.2248 4.5 10.25 4.5V4ZM24.25 4H10.25V4.5H24.25V4ZM25.5 5.25C25.5 4.55964 24.9404 4 24.25 4V4.5C24.6642 4.5 25 4.83579 25 5.25H25.5ZM24.25 6.5C24.9404 6.5 25.5 5.94036 25.5 5.25H25C25 5.66421 24.6642 6 24.25 6V6.5ZM23.25 6.5H24.25V6H23.25V6.5ZM23 6.25V9.25H23.5V6.25H23ZM23 9.25C23 9.66421 22.6642 10 22.25 10V10.5C22.9404 10.5 23.5 9.94036 23.5 9.25H23ZM22.25 10C21.8358 10 21.5 9.66421 21.5 9.25H21C21 9.94036 21.5596 10.5 22.25 10.5V10ZM21.5 9.25V6.25H21V9.25H21.5ZM19.25 6.5H21.25V6H19.25V6.5ZM19.5 8.25V6.25H19V8.25H19.5ZM18.25 9.5C18.9404 9.5 19.5 8.94036 19.5 8.25H19C19 8.66421 18.6642 9 18.25 9V9.5ZM17 8.25C17 8.94036 17.5596 9.5 18.25 9.5V9C17.8358 9 17.5 8.66421 17.5 8.25H17ZM17 6.25V8.25H17.5V6.25H17ZM10.25 6.5H17.25V6H10.25V6.5ZM10.1265 6.49395C10.1672 6.49795 10.2084 6.5 10.25 6.5V6C10.2248 6 10.1999 5.99876 10.1754 5.99635L10.1265 6.49395Z" fill="#555555"/>
</svg>
