<svg width="34" height="44" viewBox="0 0 34 44" fill="none" xmlns="http://www.w3.org/2000/svg">
<path d="M20.7698 19.5385H9.23137M13.0775 27.5385H9.23137M24.616 11.5385H9.23137M32.3083 11.1385V31.9385C32.3083 35.2989 32.3083 36.9789 31.6794 38.2625C31.1264 39.3915 30.2439 40.3093 29.1583 40.8845C27.9241 41.5385 26.3087 41.5385 23.0775 41.5385H10.7698C7.53876 41.5385 5.92322 41.5385 4.68912 40.8845C3.60356 40.3093 2.72099 39.3915 2.16787 38.2625C1.53906 36.9789 1.53906 35.2989 1.53906 31.9385V11.1385C1.53906 7.77813 1.53906 6.09797 2.16787 4.81451C2.72099 3.68553 3.60356 2.76765 4.68912 2.19241C5.92322 1.53845 7.53876 1.53845 10.7698 1.53845H23.0775C26.3087 1.53845 27.9241 1.53845 29.1583 2.19241C30.2439 2.76765 31.1264 3.68553 31.6794 4.81451C32.3083 6.09797 32.3083 7.77813 32.3083 11.1385Z" stroke="black" stroke-width="3.07692" stroke-linecap="round" stroke-linejoin="round"/>
</svg>
