<svg width="17" height="23" viewBox="0 0 17 23" fill="none" xmlns="http://www.w3.org/2000/svg">
<path d="M8.36153 14.05C4.69153 14.05 1.71153 11.07 1.71153 7.4C1.71153 3.73 4.69153 0.75 8.36153 0.75C12.0315 0.75 15.0115 3.73 15.0115 7.4C15.0115 11.06 12.0315 14.05 8.36153 14.05ZM8.36153 1.74C5.24153 1.74 2.71153 4.28 2.71153 7.39C2.71153 10.5 5.25153 13.04 8.36153 13.04C11.4715 13.04 14.0115 10.5 14.0115 7.39C14.0115 4.28 11.4815 1.74 8.36153 1.74ZM8.36153 16.74C11.1523 16.74 13.7105 18.3868 15.0029 20.986C15.1257 21.233 15.4175 21.3527 15.6714 21.2451C15.9254 21.1374 16.045 20.843 15.9233 20.5954C14.4688 17.6356 11.5511 15.75 8.36153 15.75C5.17134 15.75 2.25321 17.6363 0.798914 20.6057C0.67766 20.8533 0.797304 21.1472 1.05112 21.2548C1.30524 21.3626 1.59724 21.2425 1.71979 20.9952C3.01214 18.3871 5.57046 16.74 8.36153 16.74Z" fill="#555555" stroke="#555555" stroke-width="1.5"/>
</svg>
