<svg width="33" height="46" viewBox="0 0 33 46" fill="none" xmlns="http://www.w3.org/2000/svg">
<path d="M16.4194 27.5693C9.22588 27.5693 3.38479 21.7282 3.38479 14.5347C3.38479 7.3411 9.22588 1.5 16.4194 1.5C23.613 1.5 29.4541 7.3411 29.4541 14.5347C29.4541 21.7086 23.613 27.5693 16.4194 27.5693ZM16.4194 3.4405C10.3039 3.4405 5.34489 8.41916 5.34489 14.5151C5.34489 20.611 10.3235 25.5896 16.4194 25.5896C22.5154 25.5896 27.494 20.611 27.494 14.5151C27.494 8.41916 22.535 3.4405 16.4194 3.4405ZM16.4194 34.842C21.8897 34.842 26.9039 38.0699 29.4372 43.1647C29.6779 43.6487 30.2498 43.8834 30.7475 43.6724C31.2455 43.4613 31.4799 42.8844 31.2414 42.399C28.3903 36.5975 22.6714 32.9015 16.4194 32.9015C10.1664 32.9015 4.44653 36.5988 1.59596 42.4192C1.35829 42.9044 1.59281 43.4806 2.0903 43.6915C2.58842 43.9027 3.16077 43.6674 3.40098 43.1827C5.9341 38.0704 10.9487 34.842 16.4194 34.842Z" fill="black" stroke="black" stroke-width="3"/>
</svg>
